<?xml version="1.0" encoding="UTF-8"?>
<svg xmlns="http://www.w3.org/2000/svg" viewBox="0 0 2000 2000">
  <path fill="#fff" d="M2000.1483,1000.0174c-.1599-169.7-43.55-337.06-125.7-485.38l-17.8101-30.86c-84.45-140.44-204.6799-262.05-356.6499-349.79l-62.4202,108.11c-128.72-74.47-278.1699-117.1-437.5698-117.1s-308.8501,42.63-437.5701,117.1l-62.51-108.26c-146.88,84.98-270.13,206.24-357.5,351.54-6.12,10.17-12.06,20.46-17.82,30.86C45.1983,659.5974-.0017,824.5174-.0017,999.9974h125c0,323.83,175.91,606.5699,437.39,757.88l-62.49,108.25c147.04,84.71,313.68,130.8201,483.2,133.8301h35.6301c163.8599-2.9102,329.2799-46.2301,481.25-133.9701l-62.4102-108.09c261.5-151.3,437.4302-434.05,437.4302-757.9,0-27.68-1.29-55.07-3.8-82.09,2.59,27.24,3.9099,54.64,3.9399,82.11h125.01ZM999.9984,1749.9974c-136.6301,0-264.7301-36.5399-375.0601-100.38-224.14-129.6799-374.94-372.04-374.94-649.62s150.8-519.94,374.94-649.62c110.33-63.84,238.43-100.38,375.0601-100.38,414.22,0,750,335.79,750,750s-335.78,750-750,750Z"/>
</svg>
