<?xml version="1.0" encoding="UTF-8"?>
<svg xmlns="http://www.w3.org/2000/svg" viewBox="0 0 2000 2000">
  <path fill="#fff" d="M1500.0583,999.9674c-.01,12.71-.51,25.39-1.4801,38.0099.9401-12.54,1.4202-25.2,1.4202-37.98,0-185.05-100.53-346.62-249.9601-433.08l62.4501-108.17c-41.74-24.1-85.1201-42.84-129.3-56.43-1.4301-.44-2.8501-.87-4.28-1.3h-.02c-1.4199-.42-2.83-.84-4.24-1.25-1.64-.48-3.27-.95-4.8999-1.41-1.5801-.45-3.1501-.89-4.7301-1.3199-.24-.07-.48-.13-.72-.19-1.4601-.4-2.92-.8-4.38-1.1801-1.73-.46-3.46-.92-5.2-1.36-.8201-.21-1.6401-.42-2.4601-.63-2.4401-.61-4.88-1.21-7.33-1.79-1.45-.34-2.91-.68-4.37-1.02-.04-.01-.0699-.02-.11-.03-62.29-14.39-125.6901-18.88-188.04-14.06-1.65.13-3.3.26-4.94.4-1.35.11-2.69.23-4.02.35-1.46.13-2.92.27-4.37.41-1.42.14-2.84.29-4.26.43-1.4.15-2.8.3-4.19.45-1.37.15-2.74.31-4.11.47-1.35.16-2.7.33-4.04.49-82.55,10.41-162.59,37.16-235.04,78.89l62.5,108.26c-149.42,86.46-249.94,248.03-249.94,433.07h-125c0,231.3199,125.66,433.28,312.45,541.35l62.51-108.27c73.55,42.5601,158.95,66.92,250.0401,66.92s176.49-24.36,250.0399-66.92l62.4401,108.15c19.26-11.12,37.7-23.11,55.3099-35.88,1.17-.86,2.34-1.71,3.51-2.5699,1.24-.92,2.48-1.84,3.72-2.76,1.16-.87,2.3099-1.74,3.4601-2.62,1.48-1.12,2.96-2.25,4.4299-3.39,58.78-45.4301,107.61-99.9301,145.65-160.3199.6801-1.0601,1.35-2.1201,2-3.1901.4401-.7001.87-1.4,1.2999-2.1.5801-.9299,1.15-1.86,1.73-2.8,49.4701-80.8899,81.0601-173.8999,89.27-273.55.02-.23.04-.46.05-.68.0901-1,.1699-2.01,.25-3.01.01-.16.02-.31.03-.47,1.24-15.92,1.8799-31.9,1.8899-47.92h-125.0199ZM999.9984,1374.9974c-207.1101,0-375.0001-167.89-375.0001-375s167.89-375,375.0001-375,375,167.9,375,375-167.8901,375-375,375Z"/>
</svg>
